<svg width="30" height="31" viewBox="0 0 30 31" fill="none" xmlns="http://www.w3.org/2000/svg">
<path d="M0 15.5C0 7.21573 6.71573 0.5 15 0.5C23.2843 0.5 30 7.21573 30 15.5C30 23.7843 23.2843 30.5 15 30.5C6.71573 30.5 0 23.7843 0 15.5Z" fill="#2B3D4D"/>
<path d="M11.6666 15.4963L17.2973 9.6665L18.3333 10.7397L13.7385 15.4963L18.3333 20.2582L17.2973 21.3332L11.6666 15.4963Z" fill="#A1ACB8"/>
<path d="M15 29.5C7.26801 29.5 1 23.232 1 15.5H-1C-1 24.3366 6.16344 31.5 15 31.5V29.5ZM29 15.5C29 23.232 22.732 29.5 15 29.5V31.5C23.8366 31.5 31 24.3366 31 15.5H29ZM15 1.5C22.732 1.5 29 7.76801 29 15.5H31C31 6.66344 23.8366 -0.5 15 -0.5V1.5ZM15 -0.5C6.16344 -0.5 -1 6.66344 -1 15.5H1C1 7.76801 7.26801 1.5 15 1.5V-0.5Z" fill="#213240"/>
</svg>
